# xmcd CD database file
#
# Track frame offsets:
#	225
#	20983
#	37763
#	75206
#	105823
#	124383
#	166246
#	198268
#	235274
#
# Disc length: 3827 seconds
#
# Revision: 0
# Processed by: cddbd v1.5PL3 Copyright (c) Steve Scherf et al.
# Submitted via: CDex 1.50Beta5
#
DISCID=610ef009
DTITLE=Artisti Vari - Nuova Era n.36
DYEAR=1998
DGENRE=New Age
TTITLE0=Steve Middleton's - Ancient Rainforest
TTITLE1=Ron Clearfield - Soliloquy
TTITLE2=Philippe Bestion - Le reconstruction
TTITLE3=David Wright - China skies
TTITLE4=Gregor Theelen - Roots Unfold
TTITLE5=Garceau and Iachini - Les Sources
TTITLE6=Magec - Northern light
TTITLE7=Terry Oldfield - Angel's Embrace
TTITLE8=Patrick O'Hearn - 35th parallel
EXTD=YEAR: 1998
EXTT0=
EXTT1=
EXTT2=
EXTT3=
EXTT4=
EXTT5=
EXTT6=
EXTT7=
EXTT8=
PLAYORDER=
